<?xml version="1.0" standalone="no"?>
<!DOCTYPE svg PUBLIC "-//W3C//DTD SVG 20010904//EN"
 "http://www.w3.org/TR/2001/REC-SVG-20010904/DTD/svg10.dtd">
<svg version="1.0" xmlns="http://www.w3.org/2000/svg"
 width="512.000000pt" height="512.000000pt" viewBox="0 0 512.000000 512.000000"
 preserveAspectRatio="xMidYMid meet">
<metadata>
Created by potrace 1.14, written by Peter Selinger 2001-2017
</metadata>
<g transform="translate(0.000000,512.000000) scale(0.100000,-0.100000)"
fill="#000000" stroke="none">
<path d="M440 5109 c-132 -19 -256 -93 -334 -199 -55 -74 -84 -149 -97 -249
-6 -49 -9 -810 -7 -2156 l3 -2080 22 -65 c55 -162 177 -282 337 -333 l71 -22
2125 0 2125 0 71 22 c163 52 285 174 337 338 l22 70 0 2125 0 2125 -22 71
c-51 160 -171 282 -333 337 l-65 22 -2100 1 c-1155 1 -2125 -2 -2155 -7z
m1740 -716 c46 -156 58 -337 36 -533 -32 -274 -89 -513 -231 -970 -146 -468
-217 -750 -262 -1040 -22 -145 -25 -505 -4 -626 l13 -82 33 22 32 21 5 145 c4
99 11 157 21 183 34 80 58 32 79 -159 l12 -105 31 7 c44 9 55 22 55 65 0 73
40 348 75 514 39 190 132 540 235 890 149 502 202 746 218 992 11 166 22 172
65 38 57 -178 6 -647 -122 -1140 -22 -82 -69 -262 -104 -400 -68 -259 -116
-421 -219 -733 -33 -101 -58 -186 -55 -188 2 -3 56 0 118 7 125 13 541 5 683
-12 89 -11 467 -78 479 -86 38 -23 -52 -60 -218 -90 -113 -19 -400 -13 -685
16 -408 42 -628 22 -768 -71 -24 -15 -47 -28 -51 -28 -11 0 -55 139 -78 245
-28 125 -25 510 6 705 39 256 116 568 231 940 210 674 303 1080 316 1365 6
145 10 175 24 175 5 0 18 -30 30 -67z m175 -163 c66 -133 96 -289 96 -515 0
-97 -6 -203 -16 -268 -33 -220 -196 -729 -377 -1176 -58 -144 -95 -214 -112
-208 -34 12 40 464 129 787 83 301 173 790 206 1120 6 65 9 169 5 239 l-6 124
21 -19 c12 -10 36 -48 54 -84z m1289 -2925 c6 -16 -18 -85 -58 -164 -44 -85
-148 -161 -266 -194 -92 -26 -133 -29 -155 -14 -28 21 -13 34 121 108 112 62
260 180 314 252 24 31 35 34 44 12z m26 -147 c0 -23 -71 -155 -120 -220 -87
-119 -224 -207 -385 -249 -105 -27 -452 -36 -750 -20 -347 20 -670 25 -770 12
-49 -7 -112 -14 -140 -18 l-50 -6 45 41 c25 23 79 59 121 81 173 88 395 83
954 -21 33 -6 137 -12 230 -12 186 -1 249 10 411 73 154 59 291 162 394 295
41 55 60 68 60 44z m-1355 -88 c170 -19 465 -86 513 -116 12 -8 22 -23 22 -33
0 -23 -13 -26 -155 -42 -77 -8 -163 -9 -290 -3 -486 24 -686 3 -828 -88 -52
-33 -63 -32 -53 6 12 49 103 134 190 176 182 89 389 123 601 100z"/>
</g>
</svg>
